<?xml version="1.0" encoding="iso-8859-1"?>
<!-- Generator: Adobe Illustrator 19.0.0, SVG Export Plug-In . SVG Version: 6.00 Build 0)  -->
<svg version="1.1" id="Capa_1" xmlns="http://www.w3.org/2000/svg" xmlns:xlink="http://www.w3.org/1999/xlink" x="0px" y="0px"
	 viewBox="0 0 512 512" style="enable-background:new 0 0 512 512;" xml:space="preserve">
<path style="fill:#00F0F5;" d="M234.603,352.858H134.83l-22.88-47.43L57.68,192.932c-0.628-1.288-0.783-2.751-0.443-4.141
	l14.412-59.277c0.917-3.781,5.058-5.779,8.592-4.152l55.383,25.6c0.659,0.309,1.246,0.721,1.762,1.226
	c0.495,0.494,0.896,1.061,1.205,1.7l17.008,35.253l56.114,116.287L234.603,352.858z"/>
<path style="fill:#00D2D7;" d="M234.603,352.858h-49.892l-78.778-163.253l19.347-23.004l0.762-0.907l11.342-13.506
	c0.495,0.494,0.896,1.061,1.205,1.7l17.008,35.253l14.227,29.463l41.887,86.824L234.603,352.858z"/>
<g>
	<polygon style="fill:#00B2BF;" points="234.6,352.861 193.307,352.861 169.824,218.602 	"/>
	<path style="fill:#00B2BF;" d="M234.593,352.858h-18.244l-90.306-187.163l11.342-13.506c0.495,0.494,0.896,1.061,1.205,1.7
		l17.008,35.253l56.114,116.287L234.593,352.858z"/>
</g>
<path style="fill:#6CFFFF;" d="M151.318,352.861L73.867,192.345l15.289-62.86l-8.911-4.123c-3.534-1.635-7.682,0.366-8.602,4.15
	l-14.407,59.275c-0.338,1.391-0.183,2.857,0.439,4.146l77.167,159.927h16.476V352.861z"/>
<polygon style="fill:#00B2BF;" points="234.6,352.861 134.833,352.861 111.947,305.429 211.713,305.429 "/>
<path style="fill:#00F0F5;" d="M297.784,346.883l-16.184,2.833l-28.073,4.914l-44.246,7.747l-9.952-56.948L163.983,103.4
	c-0.247-1.411,0-2.864,0.701-4.11l30.04-53.096c1.916-3.389,6.449-4.182,9.406-1.648l46.286,39.744
	c0.546,0.474,1.01,1.04,1.36,1.658c0.34,0.608,0.577,1.277,0.701,1.968l38.045,217.512L297.784,346.883z"/>
<path style="fill:#00D2D7;" d="M297.795,346.883h-0.01l-16.184,2.833l-28.073,4.914l-1.803-10.281l-40.404-230.977L236.2,96.507
	l0.989-0.67l14.587-9.89c0.34,0.608,0.577,1.277,0.701,1.968l24.065,137.539L297.795,346.883z"/>
<g>
	<polygon style="fill:#00B2BF;" points="297.792,346.884 253.527,354.629 251.727,344.346 276.543,225.457 	"/>
	<path style="fill:#00B2BF;" d="M297.784,346.883l-16.184,2.833L237.189,95.838l14.587-9.89c0.34,0.608,0.577,1.277,0.701,1.968
		l24.065,137.539L297.784,346.883z"/>
</g>
<path style="fill:#6CFFFF;" d="M211.58,50.944l-31.861,56.303l44.185,252.566l-14.616,2.557l-45.307-258.975
	c-0.247-1.41,0.004-2.862,0.709-4.108l30.034-53.095c1.917-3.39,6.453-4.183,9.407-1.646L211.58,50.944z"/>
<polygon style="fill:#00B2BF;" points="297.781,346.884 209.284,362.373 199.327,305.429 290.525,305.429 "/>
<path style="fill:#C7CFE2;" d="M334.518,365.898v144.78H24.372V367.547c0-1.639,0.651-3.212,1.81-4.371l41.837-41.837
	c1.159-1.159,2.731-1.81,4.371-1.81h215.759L334.518,365.898z"/>
<g>
	<path style="fill:#AFB9D2;" d="M334.518,365.898v144.78H144.367v-76.143c0-3.46,1.367-6.768,3.807-9.209l46.098-46.098
		c2.44-2.44,5.749-3.807,9.198-3.807h41.77l11.671-55.892h31.238L334.518,365.898z"/>
	<path style="fill:#AFB9D2;" d="M142.014,496.306v14.372H65.079v-14.372c0-21.205,17.257-38.462,38.473-38.462
		C124.757,457.844,142.014,475.101,142.014,496.306z"/>
	<path style="fill:#AFB9D2;" d="M62.834,496.306v14.372H24.372v-52.833C45.577,457.844,62.834,475.101,62.834,496.306z"/>
</g>
<path style="fill:#E4EAF6;" d="M334.517,365.9v19.947l-52.215-52.215H75.665l-51.293,51.293v-17.376c0-1.639,0.651-3.212,1.81-4.371
	l41.837-41.837c1.159-1.159,2.731-1.81,4.371-1.81h215.759L334.517,365.9z"/>
<g>
	<path style="fill:#AFB9D2;" d="M95.833,380.111c-4.268,0-7.726-3.459-7.726-7.726v-1.018c0-4.268,3.459-7.726,7.726-7.726
		c4.268,0,7.726,3.459,7.726,7.726v1.018C103.559,376.652,100.101,380.111,95.833,380.111z"/>
	<path style="fill:#AFB9D2;" d="M95.833,441.869c-4.268,0-7.726-3.459-7.726-7.726v-1.018c0-4.268,3.459-7.726,7.726-7.726
		c4.268,0,7.726,3.459,7.726,7.726v1.018C103.559,438.411,100.101,441.869,95.833,441.869z"/>
	<path style="fill:#AFB9D2;" d="M67.794,424.37c-4.268,0-7.726-3.459-7.726-7.726v-1.018c0-4.268,3.459-7.726,7.726-7.726
		s7.726,3.459,7.726,7.726v1.018C75.52,420.912,72.061,424.37,67.794,424.37z"/>
	<path style="fill:#AFB9D2;" d="M126.184,424.37h-13.016c-4.268,0-7.726-3.459-7.726-7.726s3.459-7.726,7.726-7.726h13.016
		c4.268,0,7.726,3.459,7.726,7.726S130.452,424.37,126.184,424.37z"/>
	<path style="fill:#AFB9D2;" d="M154.777,388.569h-13.016c-4.268,0-7.726-3.459-7.726-7.726s3.459-7.726,7.726-7.726h13.016
		c4.268,0,7.726,3.459,7.726,7.726S159.044,388.569,154.777,388.569z"/>
</g>
<path style="fill:#00F0F5;" d="M420.376,190.676l-38.56,184.742l-11.435,54.806h-122.18l11.445-54.806l43.659-209.168
	c0.288-1.401,1.061-2.658,2.174-3.554l65.818-52.889c3.029-2.442,7.541-1.504,9.344,1.947l39.157,74.801
	c0.33,0.649,0.546,1.329,0.649,2.04C420.54,189.286,420.52,189.986,420.376,190.676z"/>
<path style="fill:#00D2D7;" d="M420.376,190.676l-38.56,184.742l-11.445,54.806v0.01h-61.09v-0.01l47.512-227.608l39.064-8.602
	l1.545-0.34l23.045-5.079C420.54,189.286,420.52,189.986,420.376,190.676z"/>
<path style="fill:#00B2BF;" d="M420.376,190.676l-38.56,184.742l-11.445,54.806v0.01h-22.345v-0.01l49.377-236.55l23.045-5.079
	C420.54,189.286,420.52,189.986,420.376,190.676z"/>
<path style="fill:#6CFFFF;" d="M268.388,430.233l52.339-250.753l67.125-53.935l-7.215-13.785c-1.806-3.45-6.314-4.391-9.349-1.952
	l-65.798,52.887c-1.116,0.897-1.886,2.153-2.178,3.555l-55.101,263.983L268.388,430.233L268.388,430.233z"/>
<polygon style="fill:#00B2BF;" points="381.82,375.422 370.377,430.229 248.201,430.229 259.644,375.422 "/>
<g>
	<path style="fill:#E4EAF6;" d="M127.914,504.497v-8.19c0-13.457-10.909-24.367-24.367-24.367l0,0
		c-13.457,0-24.367,10.909-24.367,24.367v8.19c0,3.414,2.767,6.181,6.181,6.181h36.372
		C125.146,510.678,127.914,507.911,127.914,504.497z"/>
	<path style="fill:#E4EAF6;" d="M48.734,504.497v-8.19c0-13.457-10.909-24.367-24.367-24.367l0,0C10.909,471.94,0,482.85,0,496.307
		v8.19c0,3.414,2.767,6.181,6.181,6.181h36.372C45.966,510.678,48.734,507.911,48.734,504.497z"/>
</g>
<path style="fill:#C7CFE2;" d="M158.463,504.497V437.54c0-1.639,0.651-3.212,1.81-4.371l41.84-41.84
	c1.159-1.159,2.731-1.81,4.371-1.81h256.585c1.639,0,3.212,0.651,4.371,1.81l42.749,42.749c1.159,1.159,1.81,2.731,1.81,4.371
	v66.047c0,3.414-2.767,6.181-6.181,6.181H164.644C161.231,510.678,158.463,507.911,158.463,504.497z"/>
<path style="fill:#E4EAF6;" d="M512,438.451v17.386l-52.215-52.215H209.761l-51.293,51.293V437.54c0-1.639,0.651-3.212,1.81-4.371
	l41.837-41.837c1.159-1.159,2.731-1.81,4.371-1.81h256.585c1.639,0,3.212,0.651,4.371,1.81l42.748,42.748
	C511.349,435.24,512,436.812,512,438.451z"/>
<g>
	<path style="fill:#AFB9D2;" d="M399.297,448.745c-4.268,0-7.726-3.459-7.726-7.726V440c0-4.268,3.459-7.726,7.726-7.726
		s7.726,3.459,7.726,7.726v1.018C407.023,445.286,403.564,448.745,399.297,448.745z"/>
	<path style="fill:#AFB9D2;" d="M470.881,470.793c-4.268,0-7.726-3.459-7.726-7.726v-1.017c0-4.268,3.459-7.726,7.726-7.726
		s7.726,3.459,7.726,7.726v1.017C478.608,467.334,475.149,470.793,470.881,470.793z"/>
	<path style="fill:#AFB9D2;" d="M201.89,485.684c-4.268,0-7.726-3.459-7.726-7.726v-1.018c0-4.268,3.459-7.726,7.726-7.726
		c4.268,0,7.726,3.459,7.726,7.726v1.018C209.617,482.225,206.158,485.684,201.89,485.684z"/>
	<path style="fill:#AFB9D2;" d="M260.281,485.684h-13.016c-4.268,0-7.726-3.459-7.726-7.726s3.459-7.726,7.726-7.726h13.016
		c4.268,0,7.726,3.459,7.726,7.726S264.548,485.684,260.281,485.684z"/>
	<path style="fill:#AFB9D2;" d="M290.319,462.002h-13.015c-4.268,0-7.726-3.459-7.726-7.726s3.459-7.726,7.726-7.726h13.015
		c4.268,0,7.726,3.459,7.726,7.726S294.587,462.002,290.319,462.002z"/>
	<path style="fill:#AFB9D2;" d="M377.604,430.407h-13.015c-4.268,0-7.726-3.459-7.726-7.726s3.459-7.726,7.726-7.726h13.015
		c4.268,0,7.726,3.459,7.726,7.726S381.871,430.407,377.604,430.407z"/>
</g>
<g>
	<path style="fill:#6CFFFF;" d="M463.742,214.508c-4.268,0-7.726-3.459-7.726-7.726v-3.227c0-4.268,3.459-7.726,7.726-7.726
		s7.726,3.459,7.726,7.726v3.227C471.469,211.049,468.01,214.508,463.742,214.508z"/>
	<path style="fill:#6CFFFF;" d="M463.742,247.015c-4.268,0-7.726-3.459-7.726-7.726v-3.227c0-4.268,3.459-7.726,7.726-7.726
		s7.726,3.459,7.726,7.726v3.227C471.469,243.556,468.01,247.015,463.742,247.015z"/>
	<path style="fill:#6CFFFF;" d="M481.61,229.148h-3.227c-4.268,0-7.726-3.459-7.726-7.726s3.459-7.726,7.726-7.726h3.227
		c4.268,0,7.726,3.459,7.726,7.726S485.877,229.148,481.61,229.148z"/>
	<path style="fill:#6CFFFF;" d="M449.103,229.148h-3.227c-4.268,0-7.726-3.459-7.726-7.726s3.459-7.726,7.726-7.726h3.227
		c4.268,0,7.726,3.459,7.726,7.726S453.37,229.148,449.103,229.148z"/>
</g>
<g>
	<path style="fill:#00D2D7;" d="M348.029,61.748c-4.268,0-7.726-3.459-7.726-7.726v-3.226c0-4.268,3.459-7.726,7.726-7.726
		s7.726,3.459,7.726,7.726v3.226C355.756,58.289,352.297,61.748,348.029,61.748z"/>
	<path style="fill:#00D2D7;" d="M348.029,94.256c-4.268,0-7.726-3.459-7.726-7.726v-3.227c0-4.268,3.459-7.726,7.726-7.726
		s7.726,3.459,7.726,7.726v3.227C355.756,90.797,352.297,94.256,348.029,94.256z"/>
	<path style="fill:#00D2D7;" d="M365.897,76.388h-3.227c-4.268,0-7.726-3.459-7.726-7.726s3.459-7.726,7.726-7.726h3.227
		c4.268,0,7.726,3.459,7.726,7.726S370.165,76.388,365.897,76.388z"/>
	<path style="fill:#00D2D7;" d="M333.389,76.388h-3.227c-4.268,0-7.726-3.459-7.726-7.726s3.459-7.726,7.726-7.726h3.227
		c4.268,0,7.726,3.459,7.726,7.726S337.657,76.388,333.389,76.388z"/>
</g>
<g>
	<path style="fill:#6CFFFF;" d="M144.367,20.002c-4.268,0-7.726-3.459-7.726-7.726V9.048c0-4.268,3.459-7.726,7.726-7.726
		s7.726,3.459,7.726,7.726v3.227C152.094,16.543,148.635,20.002,144.367,20.002z"/>
	<path style="fill:#6CFFFF;" d="M144.367,52.509c-4.268,0-7.726-3.459-7.726-7.726v-3.226c0-4.268,3.459-7.726,7.726-7.726
		s7.726,3.459,7.726,7.726v3.226C152.094,49.05,148.635,52.509,144.367,52.509z"/>
	<path style="fill:#6CFFFF;" d="M162.234,34.642h-3.227c-4.268,0-7.726-3.459-7.726-7.726s3.459-7.726,7.726-7.726h3.227
		c4.268,0,7.726,3.459,7.726,7.726S166.502,34.642,162.234,34.642z"/>
	<path style="fill:#6CFFFF;" d="M129.727,34.642H126.5c-4.268,0-7.726-3.459-7.726-7.726s3.459-7.726,7.726-7.726h3.227
		c4.268,0,7.726,3.459,7.726,7.726S133.995,34.642,129.727,34.642z"/>
	<path style="fill:#6CFFFF;" d="M34.98,236.362c-4.268,0-7.726-3.459-7.726-7.726v-3.227c0-4.268,3.459-7.726,7.726-7.726
		c4.268,0,7.726,3.459,7.726,7.726v3.227C42.706,232.904,39.247,236.362,34.98,236.362z"/>
	<path style="fill:#6CFFFF;" d="M34.98,268.869c-4.268,0-7.726-3.459-7.726-7.726v-3.227c0-4.268,3.459-7.726,7.726-7.726
		c4.268,0,7.726,3.459,7.726,7.726v3.227C42.706,265.411,39.247,268.869,34.98,268.869z"/>
	<path style="fill:#6CFFFF;" d="M52.848,251.002h-3.227c-4.268,0-7.726-3.459-7.726-7.726s3.459-7.726,7.726-7.726h3.227
		c4.268,0,7.726,3.459,7.726,7.726S57.116,251.002,52.848,251.002z"/>
	<path style="fill:#6CFFFF;" d="M20.34,251.002h-3.227c-4.268,0-7.726-3.459-7.726-7.726s3.459-7.726,7.726-7.726h3.227
		c4.268,0,7.726,3.459,7.726,7.726S24.608,251.002,20.34,251.002z"/>
</g>
<g>
	<path style="fill:#00F0F5;" d="M111.947,74.537c-4.268,0-7.726-3.459-7.726-7.726v-3.227c0-4.268,3.459-7.726,7.726-7.726
		c4.268,0,7.726,3.459,7.726,7.726v3.227C119.673,71.079,116.214,74.537,111.947,74.537z"/>
	<path style="fill:#00F0F5;" d="M111.947,107.044c-4.268,0-7.726-3.459-7.726-7.726v-3.227c0-4.268,3.459-7.726,7.726-7.726
		c4.268,0,7.726,3.459,7.726,7.726v3.227C119.673,103.586,116.214,107.044,111.947,107.044z"/>
	<path style="fill:#00F0F5;" d="M129.814,89.177h-3.227c-4.268,0-7.726-3.459-7.726-7.726c0-4.268,3.459-7.726,7.726-7.726h3.227
		c4.268,0,7.726,3.459,7.726,7.726S134.081,89.177,129.814,89.177z"/>
	<path style="fill:#00F0F5;" d="M97.307,89.177H94.08c-4.268,0-7.726-3.459-7.726-7.726c0-4.268,3.459-7.726,7.726-7.726h3.227
		c4.268,0,7.726,3.459,7.726,7.726S101.574,89.177,97.307,89.177z"/>
</g>
<g>
</g>
<g>
</g>
<g>
</g>
<g>
</g>
<g>
</g>
<g>
</g>
<g>
</g>
<g>
</g>
<g>
</g>
<g>
</g>
<g>
</g>
<g>
</g>
<g>
</g>
<g>
</g>
<g>
</g>
</svg>
