<svg height="512pt" viewBox="0 0 512 512" width="512pt" xmlns="http://www.w3.org/2000/svg"><path d="m106 482h391v30h-391zm0 0" fill="#b35f49"/><path d="m148.597656 422h275.800782v30h-275.800782zm0 0" fill="#b35f49"/><path d="m286 422h138.402344v30h-138.402344zm0 0" fill="#99503d"/><path d="m286 482h211v30h-211zm0 0" fill="#99503d"/><path d="m211.429688 365.445312 19.132812 23.117188-115.003906 95.179688-19.128906-23.117188zm0 0" fill="#a8d3d8"/><path d="m361.539062 365.453125 145.003907 120.011719-19.128907 23.113281-145.003906-120.007813zm0 0" fill="#8ebac5"/><g fill="#979fef"><path d="m15 257h30v120h-30zm0 0"/><path d="m60 182v90h-60v-90c0-16.5 13.5-30 30-30s30 13.5 30 30zm0 0"/><path d="m60 122c0 16.5-13.5 30-30 30s-30-13.5-30-30 13.5-30 30-30 30 13.5 30 30zm0 0"/><path d="m422 272v120h-271v-120l129.902344-30 5.097656 1.199219zm0 0"/></g><path d="m286 243.199219 136 28.800781v120h-136zm0 0" fill="#7984eb"/><path d="m420.5 152-134.5 30-133.5-30c6.902344-34.199219 37.199219-60 73.5-60h121c36.300781 0 66.597656 25.800781 73.5 60zm0 0" fill="#979fef"/><path d="m420.5 152-134.5 30v-90h61c36.300781 0 66.597656 25.800781 73.5 60zm0 0" fill="#7984eb"/><path d="m422 182-30 30 30 30v30h-271v-30l30-30-30-30v-15c0-5.101562.601562-10.199219 1.5-15h268c.898438 4.800781 1.5 9.898438 1.5 15zm0 0" fill="#6e6e6e"/><path d="m422 182-30 30 30 30v30h-136v-120h134.5c.898438 4.800781 1.5 9.898438 1.5 15zm0 0" fill="#5a5a5a"/><path d="m151 182h120v60h-120zm0 0" fill="#deecf1"/><path d="m301 182h121v60h-121zm0 0" fill="#c6e2e7"/><path d="m226 295.785156 21.210938 21.210938-21.210938 21.210937-21.210938-21.210937zm0 0" fill="#deecf1"/><path d="m347 295.785156 21.210938 21.210938-21.210938 21.210937-21.210938-21.210937zm0 0" fill="#c6e2e7"/><path d="m437 0h-437v30h286c107.402344 0 196 89.597656 196 197v285h30v-435c0-41.398438-33.601562-77-75-77zm0 0" fill="#6e6e6e"/><path d="m512 77v435h-30v-285c0-107.402344-88.597656-197-196-197v-30h151c41.398438 0 75 35.601562 75 77zm0 0" fill="#5a5a5a"/><path d="m60 122c0 16.5-13.5 30-30 30v-60c16.5 0 30 13.5 30 30zm0 0" fill="#7984eb"/><path d="m30 257h15v120h-15zm0 0" fill="#7984eb"/><path d="m60 272h-30v-120c16.5 0 30 13.5 30 30zm0 0" fill="#7984eb"/><path d="m0 362v150h121v-150zm0 0" fill="#6e6e6e"/><path d="m30 362h91v150h-91zm0 0" fill="#5a5a5a"/></svg>